<svg width="142" height="32" viewBox="0 0 142 32" fill="none" xmlns="http://www.w3.org/2000/svg">
<path d="M43.8325 6.65651V9.52927H36.2146V14.377H42.3192V17.1472H36.2146V24.7651H32.598V6.65651H43.8325Z" fill="#4c54bd"/>
<path d="M49.8911 13.2741C50.4212 12.3678 51.1222 11.6582 51.9943 11.1452C52.8664 10.6151 53.8411 10.3501 54.9184 10.3501V14.2231H53.8668C51.2163 14.2231 49.8911 15.4543 49.8911 17.9167V24.7651H46.2745V10.5553H49.8911V13.2741Z" fill="#4c54bd"/>
<path d="M70.2835 17.1216C70.2835 17.4806 70.2408 17.891 70.1553 18.3527H59.7415C59.7928 19.6181 60.1348 20.55 60.7675 21.1485C61.4002 21.747 62.1868 22.0463 63.1273 22.0463C63.9652 22.0463 64.6577 21.8411 65.2049 21.4307C65.7692 21.0203 66.1283 20.4646 66.2822 19.7635H70.104C69.9159 20.7552 69.514 21.6444 68.8984 22.431C68.2828 23.2176 67.4877 23.8332 66.513 24.2778C65.5554 24.7224 64.4867 24.9447 63.3068 24.9447C61.9217 24.9447 60.6905 24.654 59.6133 24.0726C58.536 23.4741 57.6981 22.6277 57.0996 21.5333C56.5011 20.4389 56.2019 19.1479 56.2019 17.6602C56.2019 16.1725 56.5011 14.8815 57.0996 13.7871C57.6981 12.6756 58.536 11.8292 59.6133 11.2478C60.6905 10.6664 61.9217 10.3757 63.3068 10.3757C64.709 10.3757 65.9316 10.6664 66.9747 11.2478C68.0349 11.8292 68.8471 12.6329 69.4114 13.6589C69.9928 14.6677 70.2835 15.822 70.2835 17.1216ZM66.6413 16.7625C66.6926 15.5997 66.3848 14.719 65.7179 14.1205C65.0681 13.5221 64.2644 13.2228 63.3068 13.2228C62.3321 13.2228 61.5113 13.5221 60.8444 14.1205C60.1776 14.719 59.8099 15.5997 59.7415 16.7625H66.6413Z" fill="#4c54bd"/>
<path d="M86.2143 17.1216C86.2143 17.4806 86.1716 17.891 86.0861 18.3527H75.6723C75.7236 19.6181 76.0656 20.55 76.6983 21.1485C77.331 21.747 78.1176 22.0463 79.0581 22.0463C79.896 22.0463 80.5885 21.8411 81.1357 21.4307C81.7 21.0203 82.0591 20.4646 82.213 19.7635H86.0348C85.8467 20.7552 85.4448 21.6444 84.8292 22.431C84.2136 23.2176 83.4185 23.8332 82.4438 24.2778C81.4862 24.7224 80.4175 24.9447 79.2376 24.9447C77.8525 24.9447 76.6214 24.654 75.5441 24.0726C74.4668 23.4741 73.6289 22.6277 73.0304 21.5333C72.4319 20.4389 72.1327 19.1479 72.1327 17.6602C72.1327 16.1725 72.4319 14.8815 73.0304 13.7871C73.6289 12.6756 74.4668 11.8292 75.5441 11.2478C76.6214 10.6664 77.8525 10.3757 79.2376 10.3757C80.6398 10.3757 81.8624 10.6664 82.9055 11.2478C83.9657 11.8292 84.7779 12.6329 85.3422 13.6589C85.9236 14.6677 86.2143 15.822 86.2143 17.1216ZM82.5721 16.7625C82.6234 15.5997 82.3156 14.719 81.6487 14.1205C80.9989 13.5221 80.1952 13.2228 79.2376 13.2228C78.2629 13.2228 77.4421 13.5221 76.7753 14.1205C76.1084 14.719 75.7407 15.5997 75.6723 16.7625H82.5721Z" fill="#4c54bd"/>
<path d="M95.8097 8.09289C94.7495 8.02449 94.0056 8.17839 93.5782 8.55458C93.1507 8.93078 92.9369 9.58912 92.9369 10.5296V10.5553H95.8097V13.6076H92.9369V24.7651H89.3203V13.6076H87.4992V10.5553H89.3203V10.2218C89.3203 8.52893 89.7991 7.22935 90.7567 6.32307C91.7314 5.39968 93.1678 4.93799 95.0658 4.93799C95.3907 4.93799 95.6387 4.94654 95.8097 4.96364V8.09289Z" fill="#4c54bd"/>
<path d="M101.591 5.78443V24.7651H97.9745V5.78443H101.591Z" fill="#4c54bd"/>
<path d="M111.429 10.3757C112.814 10.3757 114.054 10.6664 115.148 11.2478C116.26 11.8292 117.132 12.6756 117.765 13.7871C118.397 14.8815 118.714 16.1725 118.714 17.6602C118.714 19.1479 118.397 20.4389 117.765 21.5333C117.132 22.6277 116.26 23.4741 115.148 24.0726C114.054 24.654 112.814 24.9447 111.429 24.9447C110.044 24.9447 108.796 24.654 107.684 24.0726C106.59 23.4741 105.726 22.6277 105.094 21.5333C104.461 20.4389 104.145 19.1479 104.145 17.6602C104.145 16.1725 104.461 14.8815 105.094 13.7871C105.726 12.6756 106.59 11.8292 107.684 11.2478C108.796 10.6664 110.044 10.3757 111.429 10.3757ZM111.429 13.505C110.42 13.505 109.565 13.8641 108.864 14.5822C108.163 15.2833 107.812 16.3093 107.812 17.6602C107.812 19.0111 108.163 20.0456 108.864 20.7638C109.565 21.4649 110.42 21.8154 111.429 21.8154C112.438 21.8154 113.293 21.4649 113.994 20.7638C114.695 20.0456 115.046 19.0111 115.046 17.6602C115.046 16.3093 114.695 15.2833 113.994 14.5822C113.293 13.8641 112.438 13.505 111.429 13.505Z" fill="#4c54bd"/>
<path d="M141.61 10.5553L137.788 24.7651H133.787L130.734 14.4283L127.605 24.7651H123.604L119.807 10.5553H123.424L125.733 21.5333L128.887 10.5553H132.709L135.89 21.5333L138.224 10.5553H141.61Z" fill="#4c54bd"/>
<path d="M0 16.2254L0.0336415 9.84948C0.0336415 9.84948 0.0647439 9.03347 1.13069 8.49831L18.3249 0L18.2989 6.1738C18.2989 6.1738 18.2885 7.19445 17.5372 7.56971L0 16.2254Z" fill="#4c54bd"/>
<path d="M2.06054 29.0219C1.40092 28.6035 0.92827 27.9462 0.741273 27.1872C0.741273 27.1872 -1.05605 21.7876 4.23148 19.1911L19.2187 12.169L19.1716 18.1253C19.1716 18.1253 19.2631 19.1136 17.1235 20.2878L9.15051 24.9688C8.86996 25.1228 8.63632 25.3499 8.4744 25.6262C8.31247 25.9024 8.22831 26.2174 8.23085 26.5376L8.20464 32L2.06054 29.0219Z" fill="#4c54bd"/>
</svg>
