<svg width="32" height="32" viewBox="0 0 32 32" fill="none" xmlns="http://www.w3.org/2000/svg">
<rect width="32" height="32" rx="4" fill="white"/>
<path d="M10 16.1409L10.021 12.1559C10.021 12.1559 10.0405 11.6459 10.7067 11.3114L21.4531 6L21.4368 9.85863C21.4368 9.85863 21.4303 10.4965 20.9607 10.7311L10 16.1409Z" fill="#4c54bd"/>
<path d="M11.2877 24.1387C10.8754 23.8772 10.58 23.4664 10.4631 22.992C10.4631 22.992 9.33979 19.6172 12.6445 17.9944L22.0115 13.6056L21.9821 17.3283C21.9821 17.3283 22.0392 17.946 20.702 18.6799L15.7189 21.6055C15.5435 21.7017 15.3975 21.8437 15.2963 22.0164C15.1951 22.189 15.1425 22.3859 15.1441 22.586L15.1277 26L11.2877 24.1387Z" fill="#4c54bd"/>
</svg>
